<svg id="图层_1" data-name="图层 1" xmlns="http://www.w3.org/2000/svg" viewBox="0 0 66.37 67.6"><defs><style>.cls-1{fill:#cf3130;}.cls-2{fill:#ff8b00;}</style></defs><title>logo1</title><path class="cls-1" d="M22.92,46.44H20.61a.59.59,0,0,1-.24,0,.61.61,0,0,1-.32-.32.55.55,0,0,1,0-.23V43.63H18.62v-.44H20V42h1.13v1.17H23v.44H21.13V45.8a.21.21,0,0,0,.06.15.2.2,0,0,0,.15.06h1.58Z" transform="translate(-8.84 -8.08)"/><path class="cls-1" d="M25.15,45.8a.21.21,0,0,0,.06.15.2.2,0,0,0,.15.06h3v.43H24.63a.59.59,0,0,1-.24,0,.62.62,0,0,1-.32-.32.56.56,0,0,1,0-.23V43.19h4.38v1.12a.49.49,0,0,1-.49.49H25.15Zm2-1.44a.17.17,0,0,0,.17-.17v-.56H25.15v.74Z" transform="translate(-8.84 -8.08)"/><path class="cls-1" d="M34,46h.37v.43H30.19a.59.59,0,0,1-.24,0,.62.62,0,0,1-.32-.32.56.56,0,0,1,0-.23v-2a.61.61,0,0,1,.6-.6H34Zm-3.26-.21a.21.21,0,0,0,.06.15.2.2,0,0,0,.15.06h1.93V43.63H30.92a.2.2,0,0,0-.21.21Z" transform="translate(-8.84 -8.08)"/><path class="cls-1" d="M36.42,46.44H35.3V41.81h1.13Z" transform="translate(-8.84 -8.08)"/><path class="cls-1" d="M41.82,46.44H39.51a.59.59,0,0,1-.24,0,.61.61,0,0,1-.32-.32.56.56,0,0,1,0-.23V43.63H37.52v-.44h1.39V42H40v1.17H41.9v.44H40V45.8a.21.21,0,0,0,.06.15.2.2,0,0,0,.15.06h1.58Z" transform="translate(-8.84 -8.08)"/><path class="cls-1" d="M44.05,43.19h2.66a.56.56,0,0,1,.23,0,.63.63,0,0,1,.19.13.62.62,0,0,1,.13.19.59.59,0,0,1,0,.24v2.65H46.19v-2.6a.2.2,0,0,0-.06-.15.21.21,0,0,0-.15-.06H44.05v2.81H42.93V41.81h1.13Z" transform="translate(-8.84 -8.08)"/><path class="cls-1" d="M52.87,45.86a.62.62,0,0,1-.14.41.61.61,0,0,1-.49.17H48.51V46h3a.21.21,0,0,0,.21-.21V45a.23.23,0,0,0-.07-.17.24.24,0,0,0-.18-.07H49.06a.64.64,0,0,1-.41-.12.45.45,0,0,1-.16-.37v-.55a.61.61,0,0,1,.13-.42.6.6,0,0,1,.46-.15h3.79v.43h-3a.32.32,0,0,0-.17,0,.16.16,0,0,0-.07.15v.34a.2.2,0,0,0,.21.21h2.44a.58.58,0,0,1,.47.16.62.62,0,0,1,.12.4Z" transform="translate(-8.84 -8.08)"/><path class="cls-1" d="M58.43,46.44H54.65a.59.59,0,0,1-.24,0,.62.62,0,0,1-.32-.32.56.56,0,0,1,0-.23v-2a.61.61,0,0,1,.6-.6h3.78v.44h-3a.2.2,0,0,0-.21.21v2a.21.21,0,0,0,.06.15.2.2,0,0,0,.15.06h3Z" transform="translate(-8.84 -8.08)"/><path class="cls-1" d="M60.2,46.44a.59.59,0,0,1-.24,0,.62.62,0,0,1-.32-.32.56.56,0,0,1,0-.23V43.19H64v2.65a.56.56,0,0,1,0,.23.64.64,0,0,1-.13.19.64.64,0,0,1-.19.13.56.56,0,0,1-.23,0Zm.52-2.81V45.8a.21.21,0,0,0,.06.15.2.2,0,0,0,.15.06h1.72a.21.21,0,0,0,.21-.21V43.63Z" transform="translate(-8.84 -8.08)"/><path class="cls-1" d="M68.94,43.2a.6.6,0,0,1,.23,0,.56.56,0,0,1,.19.13.69.69,0,0,1,.13.19.56.56,0,0,1,0,.23v2a.56.56,0,0,1,0,.23.64.64,0,0,1-.13.19.64.64,0,0,1-.19.13.56.56,0,0,1-.23,0H66.28V47.6H65.16V43.2ZM68.21,46a.21.21,0,0,0,.21-.21v-2a.2.2,0,0,0-.06-.15.21.21,0,0,0-.15-.06H66.28V46Z" transform="translate(-8.84 -8.08)"/><path class="cls-1" d="M71.84,45.8a.21.21,0,0,0,.06.15A.2.2,0,0,0,72,46h3v.43H71.32a.59.59,0,0,1-.24,0,.62.62,0,0,1-.32-.32.56.56,0,0,1,0-.23V43.19H75.1v1.12a.49.49,0,0,1-.49.49H71.84Zm2-1.44a.17.17,0,0,0,.17-.17v-.56H71.84v.74Z" transform="translate(-8.84 -8.08)"/><path class="cls-1" d="M59.12,31.5c-.91-9-8.24-20.23-10.44-23.42V31.5Z" transform="translate(-8.84 -8.08)"/><path class="cls-2" d="M37,31.51c0,.54-.08,1.07-.08,1.59v5.46H47.36V8.08C45,11.48,37.83,22.6,37,31.51Z" transform="translate(-8.84 -8.08)"/><path class="cls-1" d="M25,52.26c.91,9,8.24,20.23,10.44,23.42V52.26Z" transform="translate(-8.84 -8.08)"/><path class="cls-2" d="M47.16,52.25c0-.54.08-1.07.08-1.59v-3H36.8v28C39.13,72.28,46.34,61.15,47.16,52.25Z" transform="translate(-8.84 -8.08)"/><path d="M44.93,40.44" transform="translate(-8.84 -8.08)"/><path d="M34.34,41.23" transform="translate(-8.84 -8.08)"/><path class="cls-1" d="M11.27,41.45a.65.65,0,0,1,.34-.08H75.2v-.87H75s-.45-.73-.57-.65a1.91,1.91,0,0,1-.85.34c-.07,0-.67.31-.73.31H10a1.21,1.21,0,0,0-.94.3,1.24,1.24,0,0,0-.26.84v1.11a.91.91,0,0,0,.32.76,1.3,1.3,0,0,0,.83.25h4.94a.49.49,0,0,1,.37.14.47.47,0,0,1,.13.34V46.3a.43.43,0,0,1-.42.42H8.88v.87h7.56a1.24,1.24,0,0,0,1-.34,1.26,1.26,0,0,0,.29-.84V44a1.25,1.25,0,0,0-.25-.81,1.17,1.17,0,0,0-1-.32h-5a.41.41,0,0,1-.42-.42v-.69A.33.33,0,0,1,11.27,41.45Z" transform="translate(-8.84 -8.08)"/></svg>